<?xml version="1.0" encoding="UTF-8"?>
<svg width="21px" height="29px" viewBox="0 0 21 29" version="1.1" xmlns="http://www.w3.org/2000/svg" xmlns:xlink="http://www.w3.org/1999/xlink">
    <!-- Generator: Sketch 53 (72520) - https://sketchapp.com -->
    <title>noun_Location_1087644</title>
    <desc>Created with Sketch.</desc>
    <g id="Доп-страницы" stroke="none" stroke-width="1" fill="none" fill-rule="evenodd">
        <g id="Как-проехать-Desktop" transform="translate(-116.000000, -483.000000)" fill="#04A653" fill-rule="nonzero">
            <g id="noun_Location_1087644" transform="translate(116.000000, 483.000000)">
                <path d="M21,11.0174671 C20.9408024,13.3573301 20.2655645,15.4625092 19.0031632,17.3599108 C16.6578787,20.8846533 14.2846798,24.3899634 11.9172563,27.8997579 C11.7358132,28.1693205 11.5356001,28.43689 11.3007347,28.6556293 C10.8083838,29.1135369 10.1798302,29.1135369 9.68603543,28.6631033 C9.46560852,28.4623016 9.27213338,28.220642 9.1027223,27.9705118 C6.71412242,24.4482607 4.31108409,20.9349783 1.95136109,17.3913017 C-2.46920913,10.7538837 0.991204574,1.83838788 8.60555856,0.198590373 C13.7629707,-0.912047317 19.2543921,2.75470134 20.5774349,8.22667223 C20.7973805,9.13700649 20.8633161,10.0862056 21,11.0174671 Z M10.4902568,27.0252989 C12.8514236,23.5145078 15.1490613,20.0993841 17.4452551,16.6822674 C17.5891583,16.469009 17.7311363,16.2542558 17.8630074,16.0325269 C19.1302215,13.9064206 19.5566369,11.6133947 19.0960505,9.15992678 C18.2778721,4.80158318 14.1378889,1.37649414 10.0619163,1.72627775 C6.58754539,2.02374329 4.01846496,3.80754003 2.53708062,7.07318356 C1.08264805,10.2810281 1.37430462,13.4231013 3.28836098,16.3648711 C4.56375685,18.3270476 5.89450009,20.2503591 7.20454822,22.1886187 C8.2773246,23.7741051 9.35587635,25.3556053 10.4902568,27.0252989 Z" id="Shape"></path>
                <path d="M14.9999825,10.9908251 C15.0071694,13.7733484 12.7972171,15.9918052 10.0107779,15.9999801 C7.22639214,16.0076441 5.006173,13.7999167 5.00001286,11.0163716 C4.99385271,8.23589208 7.2022649,6.01283687 9.98459732,6.00006362 C12.751016,5.98626852 14.9927957,8.21749861 14.9999825,10.9908251 Z M13.2422876,10.9857158 C13.2433143,9.24906572 11.7936267,7.77809905 10.053899,7.75153071 C8.24230282,7.7239405 6.75052089,9.20359297 6.75719438,11.0219918 C6.76335453,12.8041147 8.23665601,14.2628191 10.0159114,14.248513 C11.8033803,14.2352289 13.2407476,12.7811229 13.2422876,10.9857158 Z" id="Shape"></path>
            </g>
        </g>
    </g>
</svg>