<?xml version="1.0" encoding="UTF-8"?>
<svg width="23px" height="23px" viewBox="0 0 23 23" version="1.1" xmlns="http://www.w3.org/2000/svg" xmlns:xlink="http://www.w3.org/1999/xlink">
    <!-- Generator: Sketch 53 (72520) - https://sketchapp.com -->
    <title>Icons / E-mail</title>
    <desc>Created with Sketch.</desc>
    <g id="Доп-страницы" stroke="none" stroke-width="1" fill="none" fill-rule="evenodd">
        <g id="Как-проехать-Desktop" transform="translate(-605.000000, -569.000000)" fill="#00A651">
            <g id="Icons-/-E-mail" transform="translate(603.000000, 567.000000)">
                <path d="M17.747191,7.93421053 L18.5723596,7.93421053 L17.3346067,14.7315789 C17.2537075,15.1421073 17.1930339,15.5092089 17.1525843,15.8328947 C17.1121346,16.1565806 17.0919101,16.4447356 17.0919101,16.6973684 C17.0919101,17.0921072 17.1606735,17.3802623 17.2982022,17.5618421 C17.435731,17.743422 17.6743803,17.8342105 18.0141573,17.8342105 C18.5642724,17.8342105 19.1103344,17.6921067 19.6523596,17.4078947 C20.1943847,17.1236828 20.6757282,16.7210552 21.0964045,16.2 C21.5170808,15.6789448 21.8608975,15.0513195 22.1278652,14.3171053 C22.3948328,13.5828911 22.5283146,12.7578993 22.5283146,11.8421053 C22.5283146,10.6263097 22.3179796,9.55263624 21.8973034,8.62105263 C21.4766271,7.68946903 20.8860712,6.90395057 20.125618,6.26447368 C19.3651647,5.6249968 18.4591064,5.13947534 17.4074157,4.80789474 C16.3557251,4.47631413 15.1988827,4.31052632 13.9368539,4.31052632 C12.6262856,4.31052632 11.3925901,4.54736605 10.2357303,5.02105263 C9.07887062,5.49473921 8.07573458,6.14999582 7.22629213,6.98684211 C6.37684969,7.82368839 5.70539573,8.82630995 5.21191011,9.99473684 C4.7184245,11.1631637 4.47168539,12.4342037 4.47168539,13.8078947 C4.47168539,15.2131649 4.69415508,16.4684155 5.13910112,17.5736842 C5.58404717,18.6789529 6.219097,19.6105225 7.04426966,20.3684211 C7.86944233,21.1263196 8.85639875,21.7026296 10.0051685,22.0973684 C11.1539383,22.4921072 12.4321278,22.6894737 13.8397753,22.6894737 C14.3089911,22.6894737 14.8429184,22.6381584 15.441573,22.5355263 C16.0402277,22.4328942 16.5822448,22.2631591 17.0676404,22.0263158 L17.5530337,23.5421053 C16.8249402,23.8421068 16.1534862,24.0434205 15.5386517,24.1460526 C14.9238172,24.2486847 14.260453,24.3 13.5485393,24.3 C12.0438127,24.3 10.6321414,24.0789496 9.31348315,23.6368421 C7.99482487,23.1947346 6.84607231,22.539478 5.86719101,21.6710526 C4.88830971,20.8026272 4.11573317,19.7250064 3.5494382,18.4381579 C2.98314324,17.1513094 2.7,15.6631663 2.7,13.9736842 C2.7,12.252623 3.00336775,10.6973754 3.61011236,9.30789474 C4.21685697,7.91841411 5.03797235,6.73421542 6.07348315,5.75526316 C7.10899394,4.77631089 8.31437515,4.02237107 9.68966292,3.49342105 C11.0649507,2.96447104 12.5211159,2.7 14.0582022,2.7 C15.5143893,2.7 16.865387,2.90920843 18.111236,3.32763158 C19.3570849,3.74605472 20.4370741,4.34604872 21.351236,5.12763158 C22.2653978,5.90921443 22.9853906,6.86446804 23.511236,7.99342105 C24.0370813,9.12237407 24.3,10.405256 24.3,11.8421053 C24.3,12.8526366 24.1220243,13.8197322 23.7660674,14.7434211 C23.4101106,15.6671099 22.9287671,16.4763123 22.3220225,17.1710526 C21.7152779,17.8657929 21.0074198,18.4223663 20.198427,18.8407895 C19.3894342,19.2592126 18.5319146,19.4684211 17.6258427,19.4684211 C16.9462887,19.4684211 16.4042717,19.3263172 15.9997753,19.0421053 C15.5952789,18.7578933 15.3930337,18.2289512 15.3930337,17.4552632 C15.3930337,17.3131572 15.4011235,17.1592114 15.4173034,16.9934211 C15.4334832,16.8276308 15.4577526,16.6500009 15.4901124,16.4605263 L15.3930337,16.4605263 C15.1665157,16.823686 14.8995521,17.182893 14.5921348,17.5381579 C14.2847176,17.8934228 13.9409008,18.2131565 13.5606742,18.4973684 C13.1804475,18.7815804 12.7759572,19.0144728 12.347191,19.1960526 C11.9184248,19.3776325 11.4694405,19.4684211 11.0002247,19.4684211 C10.6119082,19.4684211 10.2397771,19.3855271 9.88382022,19.2197368 C9.52786339,19.0539465 9.22045073,18.8131595 8.96157303,18.4973684 C8.70269533,18.1815774 8.49640526,17.8065811 8.34269663,17.3723684 C8.188988,16.9381557 8.11213483,16.4447396 8.11213483,15.8921053 C8.11213483,14.8815739 8.28202077,13.886847 8.62179775,12.9078947 C8.96157473,11.9289425 9.41864881,11.0605301 9.99303371,10.3026316 C10.5674186,9.54473305 11.2388726,8.93289707 12.0074157,8.46710526 C12.7759589,8.00131346 13.5889845,7.76842105 14.4465169,7.76842105 C15.0451715,7.76842105 15.5224701,7.85526229 15.878427,8.02894737 C16.2343838,8.20263245 16.5822455,8.41578821 16.9220225,8.66842105 L17.747191,7.93421053 Z M16.3638202,10.2552632 C16.0887627,9.93947211 15.8137092,9.72236901 15.5386517,9.60394737 C15.2635941,9.48552572 14.9157324,9.42631579 14.4950562,9.42631579 C13.8640418,9.42631579 13.2734859,9.61184025 12.7233708,9.98289474 C12.1732557,10.3539492 11.700002,10.8355234 11.3035955,11.4276316 C10.907189,12.0197398 10.5916866,12.6828911 10.3570787,13.4171053 C10.1224707,14.1513195 10.0051685,14.8736807 10.0051685,15.5842105 C10.0051685,16.2000031 10.1346054,16.7249978 10.3934831,17.1592105 C10.6523608,17.5934232 11.1215696,17.8105263 11.8011236,17.8105263 C12.1247207,17.8105263 12.4604477,17.7078958 12.8083146,17.5026316 C13.1561815,17.2973674 13.4999983,17.017107 13.8397753,16.6618421 C14.1795523,16.3065772 14.5031445,15.9078969 14.8105618,15.4657895 C15.1179791,15.023682 15.3930325,14.5736865 15.6357303,14.1157895 L16.3638202,10.2552632 Z" id="@"></path>
            </g>
        </g>
    </g>
</svg>