<?xml version="1.0" encoding="UTF-8"?>
<svg width="30px" height="30px" viewBox="0 0 30 30" version="1.1" xmlns="http://www.w3.org/2000/svg" xmlns:xlink="http://www.w3.org/1999/xlink">
    <!-- Generator: Sketch 53 (72520) - https://sketchapp.com -->
    <title>icons8-instagram</title>
    <desc>Created with Sketch.</desc>
    <g id="Доп-страницы" stroke="none" stroke-width="1" fill="none" fill-rule="evenodd">
        <g id="Юридическая-информация-Desktop" transform="translate(-1360.000000, -10.000000)" fill="#FFFFFF" fill-rule="nonzero">
            <g id="Меню" transform="translate(0.000000, -1.000000)">
                <g id="icons8-instagram" transform="translate(1360.000000, 11.000000)">
                    <path d="M8.86363636,0 C3.97669357,0 0,3.97669357 0,8.86363636 L0,21.1363636 C0,26.0233064 3.97669357,30 8.86363636,30 L21.1363636,30 C26.0233064,30 30,26.0233064 30,21.1363636 L30,8.86363636 C30,3.97669357 26.0233064,0 21.1363636,0 L8.86363636,0 Z M8.86363636,1.36363636 L21.1363636,1.36363636 C25.2862391,1.36363636 28.6363636,4.71376098 28.6363636,8.86363636 L28.6363636,21.1363636 C28.6363636,25.2862391 25.2862391,28.6363636 21.1363636,28.6363636 L8.86363636,28.6363636 C4.71376098,28.6363636 1.36363636,25.2862391 1.36363636,21.1363636 L1.36363636,8.86363636 C1.36363636,4.71376098 4.71376098,1.36363636 8.86363636,1.36363636 Z M23.1818182,5.45454545 C22.4287026,5.45454545 21.8181818,6.06506625 21.8181818,6.81818182 C21.8181818,7.57129739 22.4287026,8.18181818 23.1818182,8.18181818 C23.9349337,8.18181818 24.5454545,7.57129739 24.5454545,6.81818182 C24.5454545,6.06506625 23.9349337,5.45454545 23.1818182,5.45454545 Z M15,7.5 C10.86594,7.5 7.5,10.86594 7.5,15 C7.5,19.13406 10.86594,22.5 15,22.5 C19.13406,22.5 22.5,19.13406 22.5,15 C22.5,10.86594 19.13406,7.5 15,7.5 Z M15,8.86363636 C18.3970957,8.86363636 21.1363636,11.6029043 21.1363636,15 C21.1363636,18.3970957 18.3970957,21.1363636 15,21.1363636 C11.6029043,21.1363636 8.86363636,18.3970957 8.86363636,15 C8.86363636,11.6029043 11.6029043,8.86363636 15,8.86363636 Z" id="Shape"></path>
                </g>
            </g>
        </g>
    </g>
</svg>