<?xml version="1.0" encoding="UTF-8"?>
<svg width="22px" height="22px" viewBox="0 0 22 22" version="1.1" xmlns="http://www.w3.org/2000/svg" xmlns:xlink="http://www.w3.org/1999/xlink">
    <!-- Generator: Sketch 53 (72520) - https://sketchapp.com -->
    <title>Shape</title>
    <desc>Created with Sketch.</desc>
    <g id="Доп-страницы" stroke="none" stroke-width="1" fill="none" fill-rule="evenodd">
        <g id="Как-проехать-Desktop" transform="translate(-607.000000, -487.000000)" fill="#04A653" fill-rule="nonzero">
            <path d="M624.284005,509 L624.284005,509 C625.482345,508.998905 626.610372,508.53305 627.460974,507.686191 C630.478986,504.667716 628.326077,502.409881 627.169597,501.195976 C626.213661,500.194197 624.946102,499.409197 624.284005,499.409197 C623.431487,499.409197 622.853657,499.798139 622.343679,500.141098 C621.926175,500.422472 621.565579,500.664705 621.104573,500.664705 C620.300208,500.664705 619.16069,499.915834 617.620085,498.374572 C614.665273,495.418503 615.190026,494.637881 615.854311,493.649788 C616.197671,493.139592 616.586448,492.561243 616.586448,491.708636 C616.586448,491.045162 615.801781,489.777063 614.800428,488.822088 C613.808925,487.875599 612.70689,487 611.368196,487 C610.341399,487 609.342235,487.500616 608.312155,488.531135 C607.466204,489.381278 607,490.509785 607,491.708909 C607,497.202272 618.79216,508.999453 624.284005,509 Z M609.830429,490.027604 C610.603278,489.254901 611.321434,488.879518 612.027272,488.879518 C613.00288,488.879518 613.854566,489.614263 614.576664,490.303164 C615.473189,491.157944 615.146213,491.925345 614.986583,492.123615 C614.74342,492.425639 614.66225,492.493456 614.380161,492.912466 C613.541778,494.159142 614.576664,497.518727 617.102652,499.899872 C618.733547,501.437249 619.826225,502.192347 620.794935,502.192347 C621.449529,502.192347 621.927232,501.870696 622.348764,501.587001 C622.767832,501.305033 623.400108,500.729171 623.928316,500.729171 C624.650524,500.729171 624.833362,500.522807 625.688498,501.419981 C626.98044,502.775107 627.973047,504.157592 625.964674,506.166866 C625.347281,506.781331 624.527869,507.11999 623.657952,507.120483 C621.604001,507.120483 618.038349,504.875577 614.573708,501.401988 C611.113994,497.933575 608.878718,494.374458 608.878718,492.334868 C608.878718,491.464067 609.216978,490.644534 609.830429,490.027604 Z" id="Shape"></path>
        </g>
    </g>
</svg>