<?xml version="1.0" encoding="UTF-8"?>
<svg width="24px" height="24px" viewBox="0 0 24 24" version="1.1" xmlns="http://www.w3.org/2000/svg" xmlns:xlink="http://www.w3.org/1999/xlink">
    <!-- Generator: Sketch 53 (72520) - https://sketchapp.com -->
    <title>noun_Time_1983761</title>
    <desc>Created with Sketch.</desc>
    <g id="Доп-страницы" stroke="none" stroke-width="1" fill="none" fill-rule="evenodd">
        <g id="Как-проехать-Desktop" transform="translate(-950.000000, -485.000000)" fill="#04A653">
            <g id="noun_Time_1983761" transform="translate(950.000000, 485.000000)">
                <path d="M12,1.76 C13.384,1.76 14.724,2.032 15.984,2.564 C17.204,3.08 18.3,3.82 19.24,4.76 C20.18,5.7 20.92,6.796 21.436,8.016 C21.968,9.276 22.24,10.62 22.24,12 C22.24,13.38 21.968,14.724 21.436,15.984 C20.92,17.204 20.18,18.3 19.24,19.24 C18.3,20.18 17.204,20.92 15.984,21.436 C14.724,21.968 13.38,22.24 12,22.24 C10.616,22.24 9.276,21.968 8.016,21.436 C6.796,20.92 5.7,20.18 4.76,19.24 C3.82,18.3 3.08,17.204 2.564,15.984 C2.032,14.724 1.76,13.38 1.76,12 C1.76,10.62 2.032,9.276 2.564,8.016 C3.08,6.796 3.82,5.7 4.76,4.76 C5.7,3.82 6.796,3.08 8.016,2.564 C9.276,2.032 10.616,1.76 12,1.76 L12,1.76 Z M12,0 C5.372,0 0,5.372 0,12 C0,18.628 5.372,24 12,24 C18.628,24 24,18.628 24,12 C24,5.372 18.628,0 12,0 Z" id="Shape" fill-rule="nonzero"></path>
                <path d="M15.0918494,16 C14.8601572,16 14.6243277,15.9113636 14.4464212,15.7298701 L11,12.2097403 L11,3.92857143 C11,3.41363636 11.4054613,3 11.9102193,3 C12.4149772,3 12.8204386,3.41363636 12.8204386,3.92857143 L12.8204386,11.4373377 L15.7331403,14.4087662 C16.0889532,14.7717532 16.0889532,15.3584416 15.7331403,15.7214286 C15.5552338,15.9071429 15.3235416,16 15.0918494,16 L15.0918494,16 Z" id="Path"></path>
            </g>
        </g>
    </g>
</svg>