<?xml version="1.0" encoding="UTF-8"?>
<svg width="30px" height="30px" viewBox="0 0 30 30" version="1.1" xmlns="http://www.w3.org/2000/svg" xmlns:xlink="http://www.w3.org/1999/xlink">
    <!-- Generator: Sketch 53 (72520) - https://sketchapp.com -->
    <title>icons8-vk-circled</title>
    <desc>Created with Sketch.</desc>
    <g id="Доп-страницы" stroke="none" stroke-width="1" fill="none" fill-rule="evenodd">
        <g id="Юридическая-информация-Desktop" transform="translate(-1250.000000, -10.000000)" fill="#FFFFFF" fill-rule="nonzero">
            <g id="Меню" transform="translate(0.000000, -1.000000)">
                <g id="icons8-vk-circled" transform="translate(1250.000000, 11.000000)">
                    <path d="M15,0 C6.72345326,0 0,6.72345326 0,15 C0,23.2765467 6.72345326,30 15,30 C23.2765467,30 30,23.2765467 30,15 C30,6.72345326 23.2765467,0 15,0 Z M15,1.30434783 C22.5716243,1.30434783 28.6956522,7.42837565 28.6956522,15 C28.6956522,22.5716243 22.5716243,28.6956522 15,28.6956522 C7.42837565,28.6956522 1.30434783,22.5716243 1.30434783,15 C1.30434783,7.42837565 7.42837565,1.30434783 15,1.30434783 Z M8.47953457,10.4347826 L5.84791109,10.4360563 C5.84791109,10.4360563 5.69732413,10.4275702 5.515455,10.451342 C5.33358587,10.4751137 5.06490965,10.4861485 4.78940217,10.7978093 L4.78812841,10.799083 L4.78685465,10.8003567 C4.54179091,11.0806089 4.55114172,11.4067911 4.58177648,11.5862772 C4.61229822,11.7651026 4.68062746,11.8986385 4.68113113,11.8996265 L4.68113113,11.9009002 C4.70643222,11.9629741 6.6172037,16.6447357 9.02598522,19.1601561 C10.7250646,20.9356193 12.54222,21.5217391 14.1605811,21.5217391 L15,21.5217391 C15.2761696,21.5217391 15.5228178,21.5091717 15.7961107,21.3676122 C16.0694041,21.226052 16.3043478,20.8353717 16.3043478,20.5320143 C16.3043478,20.2051611 16.3123774,19.888307 16.3540252,19.7117015 C16.3929254,19.5467746 16.3779143,19.587255 16.3935124,19.5868715 C16.409147,19.5902641 16.4376052,19.5968563 16.4915928,19.6212639 C16.6079361,19.6738611 16.7877039,19.7912824 16.9870924,19.9460765 C17.3852459,20.2551815 17.8568504,20.7036222 18.3856996,21.0504417 C19.143167,21.5524696 19.9651833,21.5217391 19.9651833,21.5217391 L22.6757811,21.5217391 L22.705078,21.5191917 C22.705078,21.5191917 23.1210059,21.5097352 23.5483187,21.247877 C23.7619748,21.1169472 24.015887,20.8767613 24.1011378,20.5167287 C24.1863887,20.1566967 24.0775357,19.7789661 23.8680365,19.4467559 C23.7915033,19.3249063 23.4199767,18.7864435 21.9369907,17.4698537 C21.5538626,17.1300587 21.29259,16.8895291 21.189283,16.7616339 C21.1526061,16.716227 21.1495304,16.7206102 21.1421537,16.7183257 C21.150795,16.6960259 21.2364783,16.5155935 21.4656926,16.2177313 C21.7045865,15.907292 22.0676067,15.4747461 22.5343917,14.8802648 C23.1293328,14.1223128 23.546762,13.393502 23.8094426,12.7785326 C23.9407846,12.4710483 24.0338863,12.1920359 24.0896739,11.9391137 C24.1454609,11.6861909 24.1899776,11.4759587 24.107507,11.1761211 C24.0459939,10.9529243 23.8789376,10.7530226 23.7151833,10.6475035 C23.5514289,10.5419843 23.398757,10.5022376 23.2617189,10.4768172 C22.9876454,10.4259737 22.7458272,10.4347826 22.5203804,10.4347826 C22.0483304,10.4347826 19.9498748,10.451342 19.7766646,10.451342 C19.5733748,10.451342 19.24908,10.5359993 19.0990148,10.6220276 C18.7264507,10.8353902 18.6098843,11.1277174 18.6098843,11.1277174 L18.5742189,11.1901324 L18.5538385,11.2601902 C18.5538385,11.2601902 18.0759991,12.8059741 17.5844941,13.6026665 L17.5832204,13.6026665 C17.0052691,14.5412178 16.5741587,14.9135041 16.3845959,15.0191067 C16.36446,15.0303241 16.3756154,15.0243652 16.361668,15.0318443 C16.3468409,14.988662 16.3281333,14.9292046 16.3158117,14.8191235 C16.2880872,14.571148 16.3043478,14.221935 16.3043478,13.8841709 C16.3043478,12.9486822 16.3746033,12.3653374 16.296705,11.8130093 C16.2577559,11.5368457 16.1585974,11.2293 15.9324052,10.9926972 C15.7062117,10.7560943 15.4140411,10.6396304 15.1222826,10.5723509 L15.1210089,10.5723509 C14.8169433,10.5023283 14.4892643,10.4421907 13.7020213,10.4347826 C12.6989778,10.4254304 12.0457278,10.4565261 11.4652683,10.7150139 L11.4588991,10.718835 L11.4538043,10.7213824 C11.224453,10.829115 11.0436528,10.9526028 10.8844259,11.1175272 C10.8048124,11.1999893 10.7103626,11.2600402 10.6449561,11.5225885 C10.6122496,11.6538626 10.6086626,11.9022333 10.7570485,12.1034309 C10.9054324,12.3046285 11.11338,12.3653113 11.2359887,12.3811141 C11.2133713,12.3781793 11.3324472,12.4043837 11.4245074,12.4498983 C11.5165683,12.4954135 11.5965007,12.5609478 11.6168478,12.5874659 L11.6168478,12.5887396 C11.608337,12.5776852 11.6967411,12.7973752 11.7200237,12.9976226 C11.7433063,13.1978687 11.7391304,13.359375 11.7391304,13.359375 L11.7378567,13.3988622 L11.7416778,13.4383493 C11.7416778,13.4383493 11.7817128,13.8814748 11.7607846,14.3389096 C11.7503172,14.567627 11.721407,14.7978359 11.6830839,14.9388587 C11.6810576,14.9463176 11.6801315,14.943703 11.6779891,14.9503226 C11.5147024,14.8362835 11.1381874,14.4389283 10.6194802,13.5822861 C10.139983,12.7898537 9.69089674,11.3646398 9.69089674,11.3646398 L9.68070652,11.3327954 L9.66924261,11.3022248 C9.66924261,11.3022248 9.58551391,10.9838452 9.21577761,10.7239298 C8.86922609,10.4799678 8.53940217,10.4462465 8.53940217,10.4462465 L8.47953457,10.4347826 Z M8.327955,11.7391304 C8.36525935,11.7527674 8.4432463,11.7808689 8.45788043,11.7875341 L8.44259478,11.7416778 C8.44259478,11.7416778 8.46267587,11.7877839 8.46297522,11.7888078 C8.46314087,11.7888965 8.46545804,11.7900163 8.46552326,11.7900815 L8.46552326,11.7913552 L8.46679696,11.7913552 C8.4340187,11.7684248 8.46180587,11.7911863 8.46552326,11.7964507 C8.4835363,11.857905 8.8817563,13.2296243 9.50365174,14.2573878 C10.0701802,15.1930089 10.4887304,15.7171709 10.9455672,16.0304857 C11.4019624,16.3434972 12.0156711,16.3112374 12.3276157,16.1489472 C12.744508,15.932445 12.8610385,15.576613 12.9415761,15.2802313 C13.0221137,14.9838483 13.0508459,14.6831576 13.0638587,14.3987772 C13.088687,13.8561763 13.046222,13.4123048 13.0422046,13.3682915 C13.0428567,13.3437763 13.0486637,13.1317839 13.015455,12.846043 C12.9819789,12.5581233 12.9219757,12.2003159 12.6664402,11.8410326 C12.9526715,11.7985043 13.1115854,11.7337461 13.689283,11.7391304 C14.4260054,11.746063 14.5380724,11.7768 14.82804,11.84358 C14.9859554,11.8799974 15.0034859,11.9101663 14.9885361,11.8945311 C14.9735883,11.878892 14.9872324,11.8684441 15.0050948,11.9951596 C15.040845,12.2485317 15,12.8983559 15,13.8841709 C15,14.1620602 14.9731676,14.553943 15.0191067,14.9643339 C15.0650133,15.3744691 15.1931987,15.8992441 15.6891137,16.2062667 C15.9716746,16.381142 16.511458,16.4412835 17.0202104,16.1578637 C17.5289628,15.8744446 18.0510352,15.3307422 18.6939535,14.2866848 C19.3290339,13.25727 19.7088209,11.9038428 19.749915,11.7607846 C19.749915,11.7607846 19.7571593,11.7560733 19.7613789,11.7531417 C19.7729028,11.7536961 19.7582413,11.7556898 19.7766646,11.7556898 C20.018237,11.7556898 22.079387,11.7391304 22.5203804,11.7391304 C22.641707,11.7391304 22.6949713,11.745662 22.7853261,11.7493207 C22.7488109,11.8901283 22.6997185,12.0540926 22.609545,12.2652007 C22.3976067,12.7613726 22.0338737,13.4049293 21.5077278,14.0752376 C21.0542954,14.6527135 20.7020341,15.0715702 20.4326596,15.42162 C20.163285,15.7716704 19.9516715,16.047778 19.8632811,16.4470109 C19.7748913,16.8462437 19.9435376,17.2965267 20.174083,17.5819461 C20.4046285,17.8673661 20.6899285,18.1077541 21.0708222,18.4455672 C22.5056615,19.7194122 22.7410754,20.1049885 22.763672,20.1409643 L22.763672,20.1422387 C22.7879002,20.1806583 22.772192,20.1420196 22.781505,20.1613448 C22.700145,20.1867085 22.6033102,20.2153891 22.5942593,20.2173913 L19.954993,20.2173913 L19.951172,20.2173913 C19.951172,20.2173913 19.4657459,20.2014783 19.1053839,19.9626359 L19.1041102,19.9613622 L19.1028365,19.9613622 C18.7216063,19.7116663 18.2608565,19.2834483 17.7870248,18.9155909 C17.5501083,18.7316622 17.3088985,18.5593141 17.029127,18.4328296 C16.7493554,18.306345 16.3947724,18.2166724 16.0215691,18.32838 C15.4814022,18.4900539 15.1816252,19.004132 15.0853428,19.4123641 C15.0162267,19.7054146 15.026445,19.9602561 15.0242015,20.2161176 C15.005597,20.2170972 15.0216998,20.2173913 15,20.2173913 L14.1605811,20.2173913 C12.8350285,20.2173913 11.4560185,19.812735 9.96858,18.2583222 C8.03477087,16.2389015 6.30943239,12.3336548 6.05044174,11.7404041 L8.327955,11.7391304 Z" id="Shape"></path>
                </g>
            </g>
        </g>
    </g>
</svg>