<?xml version="1.0" encoding="UTF-8"?> <svg xmlns="http://www.w3.org/2000/svg" width="117" height="117" viewBox="0 0 117 117"><g fill="none" fill-rule="evenodd"><g fill="#000"><g fill-rule="nonzero"><path d="M94.324 34.368l-2.84 1.344c2.285 4.83 3.444 10.013 3.444 15.402a35.856 35.856 0 0 1-6.054 19.998 7.365 7.365 0 0 0-4.218 5.207c-.175.18-.345.35-.486.49-6.79 6.693-15.78 10.379-25.315 10.379-9.379 0-18.219-3.561-24.964-10.038-.34-3.732-3.487-6.667-7.307-6.667-4.046 0-7.339 3.292-7.339 7.34 0 4.046 3.293 7.338 7.34 7.338 2.972 0 5.536-1.777 6.688-4.325a38.848 38.848 0 0 0 19.874 9.083 7.302 7.302 0 0 0-1.632 4.608c0 4.046 3.292 7.339 7.339 7.339 4.047 0 7.34-3.293 7.34-7.34a7.302 7.302 0 0 0-1.634-4.607c7.577-1.1 14.63-4.385 20.4-9.543 1.04 2.791 3.73 4.785 6.88 4.785 4.047 0 7.339-3.292 7.339-7.339 0-3.682-2.726-6.739-6.266-7.26a38.867 38.867 0 0 0 4.703-13.464 7.31 7.31 0 0 0 4.864 1.85c4.047 0 7.339-3.292 7.339-7.34 0-4.046-3.292-7.338-7.339-7.338-1.805 0-3.459.656-4.738 1.74a38.738 38.738 0 0 0-3.418-11.642zm-67.74 39.257a4.202 4.202 0 0 1 3.89 2.626h-7.779a4.202 4.202 0 0 1 3.89-2.626zm0 8.394a4.202 4.202 0 0 1-3.889-2.626h7.778a4.202 4.202 0 0 1-3.889 2.626zm32.27 8.311a4.201 4.201 0 0 1 3.889 2.626h-7.778a4.201 4.201 0 0 1 3.889-2.626zm0 8.394a4.202 4.202 0 0 1-3.89-2.626h7.779a4.202 4.202 0 0 1-3.89 2.626zM91.84 82.019a4.202 4.202 0 0 1-3.89-2.626h7.779a4.202 4.202 0 0 1-3.89 2.626zm3.889-5.768H87.95a4.202 4.202 0 0 1 3.889-2.626 4.202 4.202 0 0 1 3.889 2.626zm6.751-20.445a4.202 4.202 0 0 1-3.889-2.626h7.778a4.202 4.202 0 0 1-3.889 2.626zm0-8.394a4.202 4.202 0 0 1 3.89 2.626H98.59a4.201 4.201 0 0 1 3.889-2.626z"></path><path d="M25.333 50.038v3.142h2.703c.517 7.241 3.54 13.798 8.204 18.81l-1.975 1.975 2.222 2.222 2.007-2.006c5.073 4.453 11.612 7.276 18.79 7.637v2.914h3.141v-2.914c7.2-.363 13.757-3.202 18.837-7.68l2.292 2.292 2.222-2.222-2.265-2.265c4.64-5.005 7.645-11.545 8.16-18.763h2.71v-3.142h-2.644c-.22-7.431-3.076-14.212-7.663-19.438l2.095-2.095.015-.014-2.241-2.203-2.059 2.059c-5.161-4.803-11.96-7.867-19.459-8.245v-2.846h-3.142v2.846c-7.469.375-14.246 3.417-19.4 8.189l-2.012-2.014-2.223 2.22 2.04 2.042c-4.62 5.234-7.498 12.038-7.717 19.499h-2.638zM37.91 32.766l13.22 13.237 2.223-2.22-13.25-13.268c4.582-4.206 10.576-6.895 17.18-7.265v18.782h3.142V23.25c6.632.372 12.648 3.082 17.237 7.319L64.4 43.83l2.222 2.221 13.227-13.227a27.635 27.635 0 0 1 6.743 17.213H67.923v3.142H86.52c-.505 6.352-3.158 12.108-7.23 16.54L66.186 56.618l-2.222 2.221 13.072 13.075a27.64 27.64 0 0 1-16.612 6.757V60.196h-3.142V78.67a27.635 27.635 0 0 1-16.564-6.715l13.074-13.073-2.222-2.222-13.109 13.108c-4.097-4.439-6.768-10.213-7.275-16.588h18.599v-3.142H31.115a27.636 27.636 0 0 1 6.795-17.272z"></path><path d="M58.854 57.702a6.595 6.595 0 0 0 6.588-6.588 6.595 6.595 0 0 0-6.588-6.587 6.595 6.595 0 0 0-6.587 6.587 6.595 6.595 0 0 0 6.587 6.588zm0-10.033a3.45 3.45 0 0 1 3.446 3.445 3.45 3.45 0 0 1-3.446 3.446 3.45 3.45 0 0 1-3.445-3.446 3.45 3.45 0 0 1 3.445-3.445z"></path><path d="M15.52 58.948a7.302 7.302 0 0 0 4.606-1.63 38.738 38.738 0 0 0 3.565 11.176l2.815-1.394a35.652 35.652 0 0 1-3.698-14.638c.033-.28.051-.565.051-.853a7.38 7.38 0 0 0-.07-.995 35.862 35.862 0 0 1 5.816-19.148 7.36 7.36 0 0 0 4.299-5.4c6.858-7.111 16.053-11.023 25.95-11.023 9.76 0 18.9 3.835 25.737 10.8.195.198.396.41.598.626.68 3.347 3.646 5.874 7.192 5.874 4.046 0 7.339-3.293 7.339-7.34 0-4.046-3.293-7.339-7.34-7.339-3.12 0-5.79 1.96-6.85 4.711-5.928-5.517-13.273-8.998-21.205-10.096a7.309 7.309 0 0 0 1.869-4.886c0-4.047-3.293-7.34-7.34-7.34-4.046 0-7.338 3.293-7.338 7.34a7.31 7.31 0 0 0 1.878 4.897 39.438 39.438 0 0 0-20.872 9.772c-1.07-2.73-3.73-4.668-6.834-4.668-4.047 0-7.339 3.292-7.339 7.339 0 3.682 2.726 6.738 6.265 7.26a38.905 38.905 0 0 0-4.612 13.81 7.3 7.3 0 0 0-4.482-1.533c-4.046 0-7.339 3.292-7.339 7.339 0 4.047 3.292 7.339 7.339 7.339zm76.86-29.747a4.202 4.202 0 0 1-3.888-2.626h7.778a4.201 4.201 0 0 1-3.89 2.626zm0-8.394a4.201 4.201 0 0 1 3.89 2.626h-7.778a4.202 4.202 0 0 1 3.889-2.626zM58.855 11.59a4.202 4.202 0 0 1-3.889-2.626h7.778a4.201 4.201 0 0 1-3.889 2.626zm0-8.394a4.202 4.202 0 0 1 3.89 2.626h-7.779a4.202 4.202 0 0 1 3.89-2.626zM15.52 55.806a4.202 4.202 0 0 1-3.89-2.626h7.779a4.201 4.201 0 0 1-3.889 2.626zm10.168-35.27a4.201 4.201 0 0 1 3.89 2.626h-7.779a4.201 4.201 0 0 1 3.89-2.626zM21.8 26.304h7.778a4.202 4.202 0 0 1-3.889 2.626 4.202 4.202 0 0 1-3.889-2.626zM15.52 47.412a4.202 4.202 0 0 1 3.889 2.626h-7.778a4.202 4.202 0 0 1 3.889-2.626z"></path></g><path d="M94 117v-3.12h-5.25L75.635 91l-2.73 1.544 12.23 21.335H33.28l11.885-21.211-2.744-1.518-12.735 22.73H24V117h66.539z"></path><path d="M71 108h7v3h-7zM39 108h30v3H39z"></path></g><path fill="#00A0A6" fill-opacity=".179" fill-rule="nonzero" d="M60.651 21.612c10.433.356 19.385-7.23 27.62-5.296 11.212 2.635 20.073 15.722 20.073 23.909 0 6.434 8.656 8.75 8.656 28.167 0 19.418-15.87 7.762-28.73 17.002-12.86 9.24-49.665 20.835-64.545 16.77-14.88-4.066-7.718-9.814-17.03-20.532-9.314-10.718-8.53-31.627 0-46.78 4.177-7.422 6.294-14.54 17.03-16.52 11.183-2.064 24.355 2.852 36.926 3.28z"></path></g></svg> 