<?xml version="1.0" encoding="UTF-8"?> <svg xmlns="http://www.w3.org/2000/svg" width="122" height="89" viewBox="0 0 122 89"><g fill="none" fill-rule="nonzero"><path fill="#6600A6" fill-opacity=".179" d="M68.54 12.29c9.899.335 18.391-6.816 26.204-4.992 10.637 2.484 19.044 14.818 19.044 22.535 0 6.064 8.212 8.246 8.212 26.548s-15.056 7.316-27.256 16.025c-12.201 8.708-47.119 19.638-61.236 15.806-14.117-3.832-7.322-9.25-16.157-19.352s-8.092-29.81 0-44.092c3.963-6.995 5.972-13.703 16.157-15.57 10.61-1.945 23.106 2.688 35.033 3.092z"></path><path fill="#000" d="M91.036 64.215a1.41 1.41 0 0 1 1.59-1.213l9.796 1.35 1.342-9.836a1.41 1.41 0 0 1 1.591-1.212 1.42 1.42 0 0 1 1.209 1.597l-1.536 11.241a1.412 1.412 0 0 1-1.592 1.213l-11.193-1.542a1.417 1.417 0 0 1-1.207-1.598zm25.916-17.44a1.415 1.415 0 0 1-.999 1.737l-2.272.61-3.278 23.983a1.413 1.413 0 0 1-1.59 1.212l-58.701-8.089-36.134 9.724a1.412 1.412 0 0 1-1.73-1.003l-3.86-14.47-4.166-.574a1.416 1.416 0 0 1-1.207-1.598l1.623-11.881-4.59-17.2a1.415 1.415 0 0 1 .999-1.737l6.414-1.726L9.423 11.41c.05-.373.247-.71.545-.938a1.401 1.401 0 0 1 1.045-.275l35.904 4.948L103.022.048a1.411 1.411 0 0 1 1.73 1.003l6.111 22.906 4.741.653a1.416 1.416 0 0 1 1.207 1.598l-1.81 13.254 1.95 7.312zm-5.296-19.846l1.46 5.468.705-5.17-2.165-.298zM10.422 24.966l3.64-.98.78-5.712c.05-.373.248-.71.546-.938a1.397 1.397 0 0 1 1.045-.275l8.327 1.148a1.416 1.416 0 0 1 1.207 1.597 1.412 1.412 0 0 1-1.59 1.213l-6.928-.955-.427 3.126 22.859-6.151L12.028 13.2l-1.606 11.766zm-2.827 32.54l-1.072-4.014-.518 3.795 1.59.22zm103.127-7.587L57.15 64.335l50.649 6.98 2.924-21.396zm3.136-3.78l-1.657-6.213-.001-.003-3.82-14.317-.003-.007-5.988-22.444-55 14.8a.88.88 0 0 1-.025.007l-44.222 11.9L7.438 45.96c0 .003 0 .005.002.008l7.171 26.877 35.04-9.429h.004l62.372-16.785.025-.006 1.806-.486zm-41.716-11.81c2.015 7.554-2.465 15.347-9.987 17.37a13.995 13.995 0 0 1-10.717-1.417 14.08 14.08 0 0 1-6.58-8.611c-2.015-7.554 2.465-15.347 9.987-17.37a13.975 13.975 0 0 1 10.717 1.416 14.08 14.08 0 0 1 6.58 8.612zm-2.728.734a11.264 11.264 0 0 0-5.265-6.89 11.185 11.185 0 0 0-8.573-1.133c-6.018 1.619-9.602 7.853-7.99 13.897a11.264 11.264 0 0 0 5.265 6.89 11.183 11.183 0 0 0 8.573 1.133c6.018-1.62 9.602-7.853 7.99-13.897zm-58.626-.986l9.55-2.57a1.42 1.42 0 0 0 .999-1.737 1.412 1.412 0 0 0-1.73-1.002L8.693 31.705a1.415 1.415 0 0 0-.998 1.737L10.62 44.4a1.414 1.414 0 0 0 1.73 1.003 1.419 1.419 0 0 0 .998-1.737l-2.56-9.59zM28.53 62.49l-9.55 2.57-2.558-9.59a1.411 1.411 0 0 0-1.73-1.003c-.753.203-1.2.98-.998 1.737l2.924 10.96a1.413 1.413 0 0 0 1.73 1.002L29.26 65.23a1.419 1.419 0 0 0-.73-2.74zm80.778-20.038l-2.924-10.96a1.412 1.412 0 1 0-2.728.734l2.558 9.59-9.55 2.57a1.419 1.419 0 0 0 .731 2.739l10.914-2.936c.753-.203 1.2-.98.999-1.737zM100.6 20.434a1.413 1.413 0 0 0 1.73 1.003c.752-.203 1.2-.98.998-1.737l-2.924-10.96a1.41 1.41 0 0 0-1.73-1.003L87.76 10.674c-.753.202-1.2.98-.998 1.737.201.757.978 1.209 1.73 1.002l9.55-2.569 2.558 9.59z"></path></g></svg> 