<?xml version="1.0" encoding="UTF-8"?> <svg xmlns="http://www.w3.org/2000/svg" width="116" height="93" viewBox="0 0 116 93"><g fill="none" fill-rule="nonzero"><path fill="#F66666" fill-opacity=".179" d="M60.133 8.548C70.477 8.899 79.35 1.4 87.516 3.313c11.117 2.604 19.902 15.54 19.902 23.633 0 6.36 8.582 8.65 8.582 27.844 0 19.195-15.734 7.673-28.484 16.806-12.75 9.134-49.241 20.596-63.994 16.577-14.753-4.018-7.652-9.7-16.885-20.295-9.233-10.595-8.457-31.264 0-46.243 4.142-7.336 6.241-14.372 16.885-16.33 11.088-2.04 24.147 2.82 36.61 3.243z"></path><path fill="#000" d="M47.833.38a2.088 2.088 0 0 0-1.89 2.09v10.45c0 1.154.934 2.09 2.086 2.09h5.214v4.734C36.093 22.73 23 37.731 23 55.761c0 20.174 16.366 36.573 36.5 36.573S96 75.934 96 55.76c0-18.03-13.093-33.032-30.243-36.017V15.01h5.214a2.088 2.088 0 0 0 2.086-2.09V2.47c0-1.154-.934-2.09-2.086-2.09H48.03a2.082 2.082 0 0 0-.196 0zm2.281 4.18h18.772v6.27H50.114V4.56zm7.3 10.45h4.172v4.245a37.279 37.279 0 0 0-2.086-.066c-.696 0-1.399.027-2.086.066V15.01zm2.086 8.359c17.88 0 32.329 14.478 32.329 32.392 0 17.915-14.45 32.393-32.329 32.393-17.88 0-32.329-14.478-32.329-32.393 0-17.914 14.45-32.392 32.329-32.392zm-.228 4.147a2.089 2.089 0 0 0-1.858 2.122v2.09a2.09 2.09 0 0 0 1.035 1.835c.65.38 1.453.38 2.102 0a2.09 2.09 0 0 0 1.035-1.835v-2.09a2.092 2.092 0 0 0-.677-1.586 2.083 2.083 0 0 0-1.637-.536zM73.97 41.1c-.475.034-.923.23-1.271.555L61.195 51.941a4.173 4.173 0 0 0-5.866 3.82 4.176 4.176 0 0 0 4.171 4.18 4.176 4.176 0 0 0 4.171-4.18c0-.132-.02-.262-.032-.391L75.5 44.757a2.093 2.093 0 0 0 .55-2.382A2.086 2.086 0 0 0 73.97 41.1zM33.233 53.672a2.088 2.088 0 0 0-1.758 1.13 2.096 2.096 0 0 0 .098 2.09c.403.629 1.11.994 1.856.96h2.085a2.085 2.085 0 0 0 1.831-1.037c.38-.651.38-1.456 0-2.107a2.085 2.085 0 0 0-1.83-1.036h-2.086a2.082 2.082 0 0 0-.196 0zm50.057 0a2.088 2.088 0 0 0-1.758 1.13 2.096 2.096 0 0 0 .098 2.09c.403.629 1.11.994 1.856.96h2.085a2.085 2.085 0 0 0 1.831-1.037c.38-.651.38-1.456 0-2.107a2.085 2.085 0 0 0-1.83-1.036h-2.086a2.082 2.082 0 0 0-.196 0zm-24.018 24a2.089 2.089 0 0 0-1.858 2.123v2.09a2.09 2.09 0 0 0 1.035 1.834c.65.38 1.453.38 2.102 0a2.09 2.09 0 0 0 1.035-1.835v-2.09a2.092 2.092 0 0 0-.677-1.586 2.083 2.083 0 0 0-1.637-.536z"></path></g></svg> 