<?xml version="1.0" encoding="UTF-8"?> <svg xmlns="http://www.w3.org/2000/svg" width="110" height="83" viewBox="0 0 110 83"><g fill="none" fill-rule="evenodd"><path fill="#0028A6" fill-opacity=".179" fill-rule="nonzero" d="M57.022 6.29c9.81.335 18.225-6.816 25.967-4.992 10.542 2.484 18.873 14.818 18.873 22.535 0 6.064 8.138 8.246 8.138 26.548s-14.92 7.316-27.01 16.025c-12.092 8.708-46.695 19.638-60.685 15.806-13.99-3.832-7.256-9.25-16.011-19.352-8.756-10.102-8.02-29.81 0-44.092 3.927-6.995 5.918-13.703 16.011-15.57C32.82 1.253 45.203 5.886 57.022 6.29z"></path><g fill="#000"><path fill-rule="nonzero" d="M102.723.413H16.991c-1.169 0-2.117.963-2.117 2.15v71.874c0 1.187.948 2.15 2.117 2.15h85.731c1.17 0 2.117-.963 2.117-2.15V2.563c.001-1.187-.947-2.15-2.116-2.15zm-2.118 4.3v11.073H19.11V4.712h81.495zM19.11 72.287V20.084h81.495v52.204H19.11z"></path><path d="M24.175 12.504h.172c1.17 0 2.117-.963 2.117-2.15 0-1.187-.948-2.15-2.117-2.15h-.172c-1.169 0-2.117.963-2.117 2.15 0 1.187.947 2.15 2.117 2.15zM31.086 12.504h.177c1.17 0 2.117-.963 2.117-2.15 0-1.187-.948-2.15-2.117-2.15h-.177c-1.169 0-2.117.963-2.117 2.15 0 1.187.948 2.15 2.117 2.15zM38.021 12.504h.172c1.17 0 2.117-.963 2.117-2.15 0-1.187-.948-2.15-2.117-2.15h-.172c-1.169 0-2.117.963-2.117 2.15 0 1.187.948 2.15 2.117 2.15z"></path><path fill-rule="nonzero" d="M77.9 31.607l-35.224.012-1.395-6.702a1.321 1.321 0 0 0-1.288-1.059H35.58c-.727 0-1.317.598-1.317 1.336 0 .738.589 1.336 1.317 1.336h3.345l6.117 29.399c.13.617.665 1.06 1.288 1.06h27.724c.726 0 1.317-.598 1.317-1.336 0-.738-.59-1.336-1.317-1.336H47.402l-.703-3.375h28.367l.014.001c.17 0 .332-.038.484-.101.048-.02.086-.053.131-.077.096-.053.188-.108.268-.184.047-.043.081-.095.12-.143.06-.076.118-.153.162-.243.032-.064.05-.13.07-.199.018-.055.049-.104.059-.163l2.823-16.661a1.352 1.352 0 0 0-.29-1.089 1.3 1.3 0 0 0-1.006-.476zM43.234 34.29l33.107-.009-2.371 13.989H46.143l-2.91-13.98zM49.812 57.627c-2.882 0-5.227 2.375-5.227 5.294 0 2.923 2.344 5.301 5.227 5.301 2.88 0 5.221-2.378 5.221-5.301 0-2.919-2.342-5.294-5.221-5.294zm0 7.923c-1.43 0-2.595-1.18-2.595-2.63 0-1.444 1.164-2.621 2.595-2.621 1.427 0 2.588 1.177 2.588 2.622 0 1.45-1.16 2.63-2.588 2.63zM69.205 57.627c-2.875 0-5.215 2.375-5.215 5.294 0 2.923 2.34 5.301 5.215 5.301s5.215-2.378 5.215-5.301c0-2.919-2.34-5.294-5.215-5.294zm0 7.923c-1.424 0-2.582-1.18-2.582-2.63 0-1.444 1.159-2.621 2.582-2.621 1.423 0 2.582 1.177 2.582 2.622 0 1.45-1.158 2.63-2.582 2.63z"></path></g></g></svg> 