<?xml version="1.0" encoding="UTF-8"?> <svg xmlns="http://www.w3.org/2000/svg" width="116" height="106" viewBox="0 0 116 106"><g fill="none" fill-rule="nonzero"><path fill="#F4E108" fill-opacity=".179" d="M60.133 25.548c10.344.351 19.218-7.148 27.383-5.235 11.117 2.604 19.902 15.54 19.902 23.633 0 6.36 8.582 8.65 8.582 27.844 0 19.195-15.734 7.673-28.484 16.806-12.75 9.134-49.241 20.596-63.994 16.577-14.753-4.018-7.652-9.7-16.885-20.295-9.233-10.595-8.457-31.264 0-46.243 4.142-7.336 6.241-14.372 16.885-16.33 11.088-2.04 24.147 2.82 36.61 3.243z"></path><path fill="#000" d="M51.5.458a2.36 2.36 0 0 0-2.361 2.36v14.157a2.36 2.36 0 0 0 4.722 0V2.817A2.36 2.36 0 0 0 51.5.457zm-34.236 12.24c-.605 0-1.2.24-1.66.7a2.38 2.38 0 0 0 0 3.355l10.034 9.992a2.34 2.34 0 0 0 3.32 0 2.336 2.336 0 0 0 0-3.318l-9.997-10.029a2.427 2.427 0 0 0-1.697-.7zm68.472 0c-.604 0-1.236.24-1.697.7L74.04 23.427a2.336 2.336 0 0 0 0 3.318 2.34 2.34 0 0 0 3.32 0l10.035-9.992a2.38 2.38 0 0 0-1.66-4.055zM26.007 34.376L9.48 55.612c-.67.866-.621 2.21.111 3.023l40.14 44.832c.882 1 2.658 1 3.54 0l40.14-44.832c.732-.814.781-2.157.11-3.023L76.994 34.376a2.4 2.4 0 0 0-1.882-.885H27.89c-.763-.05-1.483.406-1.882.885zm5.239 3.835h15.568L36.411 52.33l-5.165-14.12zm24.94 0h15.568l-5.165 14.12-10.404-14.12zM51.5 39.87l10.994 14.857H40.543L51.5 39.87zm-24.35.81l5.129 14.047H16.194L27.15 40.681zm48.699 0l10.957 14.047H70.72l5.128-14.046zM16.673 59.448h17.303l11.88 32.59-29.183-32.59zm22.32 0h25.05L51.5 93.844 38.993 59.447zm30.03 0h17.303L57.181 92l11.843-32.554z"></path></g></svg> 